<?xml version="1.0" encoding="UTF-8"?>
<!-- Generated by jsxcad -->
<!DOCTYPE svg PUBLIC "-//W3C//DTD SVG 1.1 Tiny//EN" "http://www.w3.org/Graphics/SVG/1.1/DTD/svg11-tiny.dtd">
<svg baseProfile="tiny" height="6.400000000000004mm" width="5.550000000000003mm" viewBox="0 0 5.550000000000003 6.400000000000004" version="1.1" stroke="black" stroke-width=".1" fill="none" xmlns="http://www.w3.org/2000/svg">
<path fill="#000000" stroke="#000000" d="M5.125 4.52836 L5.125 5.25691 L5.125 5.34703 L4.77017 5.70186 L4.16343 6.0831 L3.48707 6.31977 L2.775 6.4 L2.06293 6.31977 L1.38657 6.0831 L0.77983 5.70186 L0.27314 5.19517 L-0.1081 4.58843 L-0.34477 3.91207 L-0.425 3.2 L-0.34477 2.48793 L-0.1081 1.81157 L0.27314 1.20483 L0.77983 0.69814 L1.38657 0.3169 L2.06293 0.08023 L2.775 0 L3.48707 0.08023 L4.16343 0.3169 L4.77017 0.69814 L5.125 1.05297 L5.125 1.26285 L5.125 2.25276 z"/>
<path fill="#000000" stroke="#000000" d="M4.7701695895244836 5.7018593467319585 L4.7701695895244836 5.7018593467319585 L4.163429593988831 6.083099353836927 L4.163429593988831 6.083099353836927 z"/>
<path fill="#000000" stroke="#000000" d="M3.487069459206291 6.319768454500374 L3.487069459206291 6.319768454500374 L4.163429895650283 6.083099701785642 L4.163429895650283 6.083099701785642 z"/>
<path fill="#000000" stroke="#000000" d="M2.775 6.400000000000002 L2.775 6.400000000000002 L3.4870698864793135 6.31976899247604 L3.4870698864793135 6.31976899247604 z"/>
<path fill="#000000" stroke="#000000" d="M5.125000000000001 5.34703 L5.125000000000001 5.34703 L5.125000000000001 5.34703 L5.125000000000001 5.34703 L5.125000000000001 5.25691 L5.125000000000001 4.52836 L5.125000000000001 2.25276 L5.125000000000001 1.26285 L5.125000000000001 1.05297 L5.125000000000001 1.05297 L5.125000000000001 1.05297 L5.125000000000001 1.05297 L5.125000000000001 1.26285 L5.125000000000001 2.25276 L5.125000000000001 4.52836 L5.125000000000001 5.25691 z"/>
<path fill="#000000" stroke="#000000" d="M1.3865704060111712 0.3169006461630774 L1.3865704060111712 0.3169006461630774 L0.7798304104755186 0.6981406532680455 L0.7798304104755186 0.6981406532680455 z"/>
<path fill="#000000" stroke="#000000" d="M4.770169589524482 0.698140653268044 L4.770169589524482 0.698140653268044 L4.1634295939888295 0.31690064616307595 L4.1634295939888295 0.31690064616307595 z"/>
<path fill="#000000" stroke="#000000" d="M3.48706945920629 0.08023154549962945 L3.48706945920629 0.08023154549962945 L4.163429895650281 0.31690029821436155 L4.163429895650281 0.31690029821436155 z"/>
<path fill="#000000" stroke="#000000" d="M2.7749999999999995 1.692759929807987e-15 L2.7749999999999995 1.692759929807987e-15 L3.487069886479313 0.08023100752396368 L3.487069886479313 0.08023100752396368 z"/>
<path fill="#000000" stroke="#000000" d="M2.0629301135206872 0.08023100752396456 L2.0629301135206872 0.08023100752396456 L2.775 1.815416774318653e-15 L2.775 1.815416774318653e-15 z"/>
<path fill="#000000" stroke="#000000" d="M2.06293054079371 0.08023154549963024 L2.06293054079371 0.08023154549963024 L1.3865701043497187 0.31690029821436294 L1.3865701043497187 0.31690029821436294 z"/>
<path fill="#000000" stroke="#000000" d="M-0.3447689924760354 3.9120698864793124 L-0.3447689924760354 3.9120698864793124 L-0.42499999999999893 3.1999999999999997 L-0.42499999999999893 3.1999999999999997 z"/>
<path fill="#000000" stroke="#000000" d="M-0.34476899247603604 2.4879301135206866 L-0.34476899247603604 2.4879301135206866 L-0.424999999999998 3.2 L-0.424999999999998 3.2 z"/>
<path fill="#000000" stroke="#000000" d="M-0.10809935383692233 1.8115704060111713 L-0.10809935383692233 1.8115704060111713 L0.2731406532680449 1.204830410475518 L0.2731406532680449 1.204830410475518 z"/>
<path fill="#000000" stroke="#000000" d="M0.27314094507718034 1.2048309450771804 L0.27314094507718034 1.2048309450771804 L0.7798309450771803 0.6981409450771803 L0.7798309450771803 0.6981409450771803 z"/>
<path fill="#000000" stroke="#000000" d="M-0.10809970178563769 1.8115701043497183 L-0.10809970178563769 1.8115701043497183 L-0.34476845450036925 2.4879305407937102 L-0.34476845450036925 2.4879305407937102 z"/>
<path fill="#000000" stroke="#000000" d="M-0.10809970178563803 4.588429895650281 L-0.10809970178563803 4.588429895650281 L-0.34476845450037086 3.91206945920629 L-0.34476845450037086 3.91206945920629 z"/>
<path fill="#000000" stroke="#000000" d="M0.2731406532680441 5.195169589524482 L0.2731406532680441 5.195169589524482 L-0.10809935383692461 4.588429593988829 L-0.10809935383692461 4.588429593988829 z"/>
<path fill="#000000" stroke="#000000" d="M0.7798309450771785 5.701859054922821 L0.7798309450771785 5.701859054922821 L0.2731409450771781 5.195169054922822 L0.2731409450771781 5.195169054922822 z"/>
<path fill="#000000" stroke="#000000" d="M2.062930113520687 6.319768992476039 L2.062930113520687 6.319768992476039 L2.7749999999999995 6.400000000000001 L2.7749999999999995 6.400000000000001 z"/>
<path fill="#000000" stroke="#000000" d="M1.3865704060111694 6.083099353836925 L1.3865704060111694 6.083099353836925 L0.7798304104755166 5.701859346731957 L0.7798304104755166 5.701859346731957 z"/>
<path fill="#000000" stroke="#000000" d="M1.3865701043497172 6.083099701785641 L1.3865701043497172 6.083099701785641 L2.062930540793709 6.319768454500372 L2.062930540793709 6.319768454500372 z"/>
<path fill="#000000" stroke="#000000" d="M5.125 1.26285 L5.125 1.05297 L4.77017 0.69814 L4.16343 0.3169 L3.48707 0.08023 L2.775 0 L2.06293 0.08023 L1.38657 0.3169 L0.77983 0.69814 L0.27314 1.20483 L-0.1081 1.81157 L-0.34477 2.48793 L-0.425 3.2 L-0.34477 3.91207 L-0.1081 4.58843 L0.27314 5.19517 L0.77983 5.70186 L1.38657 6.0831 L2.06293 6.31977 L2.775 6.4 L3.48707 6.31977 L4.16343 6.0831 L4.77017 5.70186 L5.125 5.34703 L5.125 5.25691 L5.125 4.52836 L5.125 2.25276 z"/>
<path fill="#000000" stroke="#000000" d="M5.124999054922823 5.347029054922823 L5.124999054922823 5.347029054922823 L4.770169054922823 5.7018590549228225 L4.770169054922823 5.7018590549228225 L5.124999054922823 5.347029054922823 L5.124999054922823 5.347029054922823 z"/>
<path fill="#000000" stroke="#000000" d="M5.124999054922821 1.0529709450771785 L5.124999054922821 1.0529709450771785 L5.124999054922821 1.0529709450771785 L5.124999054922821 1.0529709450771785 L4.770169054922821 0.6981409450771788 L4.770169054922821 0.6981409450771788 z"/>
</svg>